<svg width="106" height="24" viewBox="0 0 106 24" fill="none" xmlns="http://www.w3.org/2000/svg">
<path d="M20 13.5C19.1716 13.5 18.5 12.8284 18.5 12C18.5 11.1716 19.1716 10.5 20 10.5L20 13.5ZM105.061 10.9393C105.646 11.5251 105.646 12.4749 105.061 13.0607L95.5147 22.6066C94.9289 23.1924 93.9792 23.1924 93.3934 22.6066C92.8076 22.0208 92.8076 21.0711 93.3934 20.4853L101.879 12L93.3934 3.51473C92.8076 2.92894 92.8076 1.97919 93.3934 1.3934C93.9792 0.807618 94.9289 0.807618 95.5147 1.3934L105.061 10.9393ZM20 10.5L104 10.5L104 13.5L20 13.5L20 10.5Z" fill="#E6E6E6"/>
<circle r="2" transform="matrix(0 1 1 0 2 12)" fill="#E6E6E6"/>
</svg>
