<svg width="106" height="24" viewBox="0 0 106 24" fill="none" xmlns="http://www.w3.org/2000/svg">
<path d="M20 10.5C19.1716 10.5 18.5 11.1716 18.5 12C18.5 12.8284 19.1716 13.5 20 13.5L20 10.5ZM105.061 13.0607C105.646 12.4749 105.646 11.5251 105.061 10.9393L95.5147 1.39339C94.9289 0.807605 93.9792 0.807605 93.3934 1.39339C92.8076 1.97918 92.8076 2.92893 93.3934 3.51471L101.879 12L93.3934 20.4853C92.8076 21.0711 92.8076 22.0208 93.3934 22.6066C93.9792 23.1924 94.9289 23.1924 95.5147 22.6066L105.061 13.0607ZM20 13.5L104 13.5L104 10.5L20 10.5L20 13.5Z" fill="#006632"/>
<circle cx="2" cy="12" r="2" transform="rotate(-90 2 12)" fill="#006632"/>
</svg>
