<svg width="24" height="142" viewBox="0 0 24 142" fill="none" xmlns="http://www.w3.org/2000/svg">
<path d="M13.5 20C13.5 19.1716 12.8284 18.5 12 18.5C11.1716 18.5 10.5 19.1716 10.5 20H13.5ZM10.9393 141.061C11.5251 141.646 12.4749 141.646 13.0607 141.061L22.6066 131.515C23.1924 130.929 23.1924 129.979 22.6066 129.393C22.0208 128.808 21.0711 128.808 20.4853 129.393L12 137.879L3.51472 129.393C2.92893 128.808 1.97918 128.808 1.3934 129.393C0.807612 129.979 0.807612 130.929 1.3934 131.515L10.9393 141.061ZM10.5 20V140H13.5V20H10.5Z" fill="white"/>
<circle cx="12" cy="2" r="2" fill="white"/>
</svg>
