<svg width="32" height="32" viewBox="0 0 32 32" fill="none" xmlns="http://www.w3.org/2000/svg">
<path fill-rule="evenodd" clip-rule="evenodd" d="M16 30C23.732 30 30 23.732 30 16C30 8.26801 23.732 2 16 2C8.26801 2 2 8.26801 2 16C2 23.732 8.26801 30 16 30ZM16 32C24.8366 32 32 24.8366 32 16C32 7.16344 24.8366 0 16 0C7.16344 0 0 7.16344 0 16C0 24.8366 7.16344 32 16 32Z" fill="#006632"/>
<g clip-path="url(#clip0)">
<path d="M23.6364 12.6537L15.1873 21.1017C14.9545 21.3356 14.6392 21.4651 14.3096 21.4651C13.98 21.4651 13.6647 21.3346 13.4319 21.1017L8.36414 16.034C7.87862 15.5495 7.87862 14.7636 8.36414 14.2796C8.84917 13.7945 9.63455 13.7945 10.1191 14.2796L14.3091 18.4691L21.8799 10.8983C22.365 10.4132 23.1503 10.4132 23.6344 10.8983C24.1214 11.3833 24.1214 12.1692 23.6364 12.6537Z" fill="black"/>
</g>
<defs>
<clipPath id="clip0">
<rect width="16" height="16" fill="white" transform="translate(8 8)"/>
</clipPath>
</defs>
</svg>
