<svg width="20" height="16" viewBox="0 0 20 16" fill="none" xmlns="http://www.w3.org/2000/svg">
<path d="M19.9851 2.30853C19.9851 2.28568 20.0008 2.26344 19.9998 2.24084L13.8965 8.12172L19.9925 13.8147C19.9961 13.7741 19.9851 13.733 19.9851 13.6915V2.30853Z" fill="#5A5A5A"/>
<path d="M12.9653 9.02667L10.4737 11.4239C10.3477 11.5452 10.1848 11.606 10.0219 11.606C9.86236 11.606 9.70283 11.5478 9.57762 11.4311L7.09284 9.11565L0.957031 15.0299C1.10623 15.0835 1.26637 15.1251 1.43407 15.1251H18.6098C18.8588 15.1251 19.0924 15.0493 19.2955 14.9361L12.9653 9.02667Z" fill="#5A5A5A"/>
<path d="M10.014 10.0569L19.3285 1.08431C19.1176 0.958929 18.8722 0.874817 18.609 0.874817H1.4333C1.09068 0.874817 0.776741 1.00785 0.532227 1.21074L10.014 10.0569Z" fill="#5A5A5A"/>
<path d="M0 2.5271V13.6914C0 13.8195 0.0294565 13.9431 0.0614329 14.0612L6.12113 8.22584L0 2.5271Z" fill="#5A5A5A"/>
</svg>
