<svg width="16" height="20" viewBox="0 0 16 20" fill="none" xmlns="http://www.w3.org/2000/svg">
<path d="M7.71543 0.00509036C3.74187 0.144514 0.440822 3.24463 0.0594591 7.20179C-0.0184538 7.99322 0.0266538 8.76005 0.166077 9.49407C0.166077 9.49407 0.178379 9.58018 0.219386 9.74421C0.342406 10.2937 0.526937 10.8268 0.756575 11.3271C1.55621 13.2216 3.40561 16.3914 7.5555 19.8401C7.80974 20.0533 8.18291 20.0533 8.44125 19.8401C12.5911 16.3955 14.4405 13.2257 15.2443 11.323C15.478 10.8227 15.6584 10.2937 15.7815 9.74011C15.8184 9.58018 15.8348 9.48997 15.8348 9.48997C15.9291 8.99789 15.9783 8.4935 15.9783 7.97682C15.9783 3.47427 12.2508 -0.154836 7.71543 0.00509036ZM7.99837 11.9463C5.85782 11.9463 4.12323 10.2117 4.12323 8.07113C4.12323 5.93058 5.85782 4.19599 7.99837 4.19599C10.1389 4.19599 11.8735 5.93058 11.8735 8.07113C11.8735 10.2117 10.1389 11.9463 7.99837 11.9463Z" fill="#5A5A5A"/>
</svg>
