<svg width="312" height="72" viewBox="0 0 312 72" fill="none" xmlns="http://www.w3.org/2000/svg">
<g clip-path="url(#clip0)">
<path d="M83.6816 53.3059H99.4428V48.271H89.3774V41.0198H99.0872V35.9849H89.3774V30.2334H99.479V25.1985H83.6816V53.3059Z" fill="#777676"/>
<path d="M108.472 23.8796H103.125V53.306H108.472V23.8796Z" fill="#777676"/>
<path d="M117.838 34.8948H112.492V53.3058H117.838V34.8948Z" fill="#777676"/>
<path d="M141.308 34.8948H134.437L130.646 39.5201L127.042 34.8948H120.394L127.415 43.3384L118.712 53.3058H125.625L130.646 47.1748L135.793 53.3058H142.61L134.069 43.3445L141.308 34.8948Z" fill="#777676"/>
<path d="M148.908 34.8948H143.568V53.3058H148.908V34.8948Z" fill="#777676"/>
<path d="M163.048 34.4854C162.055 34.4897 161.078 34.7442 160.209 35.2253C159.34 35.7063 158.606 36.3984 158.076 37.2377V34.8949H152.82V53.3059H158.166V44.5672C158.166 42.7604 158.606 41.3812 159.468 40.4838C159.834 40.1173 160.272 39.8306 160.754 39.6419C161.237 39.4532 161.753 39.3667 162.271 39.3877C162.825 39.3743 163.373 39.4985 163.868 39.7491L164.169 39.9117L165.417 35.0214L165.206 34.931C164.525 34.6365 163.79 34.4848 163.048 34.4854V34.4854Z" fill="#777676"/>
<path d="M195.68 41.6642C195.68 46.4823 193.872 48.8251 190.086 48.8251C186.301 48.8251 184.511 46.4823 184.511 41.6642V25.1985H178.81V42.7182C178.81 46.2173 179.822 48.9997 181.823 50.9812C183.824 52.9626 186.603 53.9925 190.086 53.9925C193.57 53.9925 196.343 52.9867 198.35 50.9812C200.357 48.9757 201.363 46.2173 201.363 42.7182V25.1985H195.662L195.68 41.6642Z" fill="#777676"/>
<path d="M224.237 34.8949H216.883L210.585 41.0922V23.8796H205.239V53.306H210.585V45.9644L217.468 53.306H224.924L215.25 43.3145L224.237 34.8949Z" fill="#777676"/>
<path d="M238.232 34.9309C237.55 34.6274 236.814 34.4674 236.068 34.4612C235.075 34.4666 234.1 34.7215 233.232 35.2025C232.364 35.6835 231.632 36.3751 231.101 37.2135V34.8948H225.846V53.3058H231.192V44.5671C231.192 42.7603 231.632 41.3811 232.494 40.4838C232.86 40.1172 233.298 39.8305 233.78 39.6418C234.262 39.4531 234.779 39.3666 235.296 39.3877C235.842 39.378 236.383 39.5021 236.869 39.749L237.171 39.9116L238.418 35.0213L238.232 34.9309Z" fill="#777676"/>
<path d="M252.974 36.8943C252.263 36.0697 251.378 35.4122 250.383 34.9687C249.388 34.5252 248.308 34.3067 247.218 34.3287C246.012 34.2989 244.813 34.5318 243.706 35.0112C242.599 35.4906 241.609 36.2052 240.806 37.1051C239.109 39.0315 238.212 41.5325 238.298 44.0973C238.231 46.6663 239.137 49.1657 240.836 51.0956C241.625 52.0104 242.606 52.7404 243.709 53.2337C244.812 53.7271 246.01 53.9717 247.218 53.9503C248.32 53.9684 249.411 53.7347 250.409 53.2671C251.407 52.7995 252.284 52.1103 252.974 51.2522V53.2878H258.242V34.8948H252.974V36.8943ZM251.661 40.5079C252.107 40.9937 252.454 41.5632 252.679 42.1834C252.905 42.8036 253.005 43.4623 252.974 44.1214C253.022 45.4442 252.566 46.7358 251.697 47.735C251.267 48.1794 250.752 48.5328 250.182 48.7742C249.613 49.0156 249 49.1399 248.382 49.1399C247.763 49.1399 247.151 49.0156 246.581 48.7742C246.012 48.5328 245.497 48.1794 245.067 47.735C244.234 46.7147 243.778 45.4383 243.778 44.1214C243.778 42.8046 244.234 41.5281 245.067 40.5079C245.476 40.0565 245.98 39.7006 246.542 39.4654C247.105 39.2301 247.712 39.1214 248.321 39.1468C248.943 39.1276 249.561 39.2383 250.137 39.4716C250.713 39.7049 251.234 40.0558 251.667 40.5019L251.661 40.5079Z" fill="#777676"/>
<path d="M267.464 34.8948H262.124V53.3058H267.464V34.8948Z" fill="#777676"/>
<path d="M282.073 34.3287C281.038 34.2982 280.008 34.4986 279.059 34.9153C278.111 35.3319 277.267 35.9545 276.589 36.7377V34.8948H271.333V53.3059H276.649V43.8926C276.649 40.5259 277.854 38.8878 280.35 38.8878C282.453 38.8878 283.478 40.1586 283.478 42.7664V53.3059H288.824V42.0376C288.824 36.9305 286.546 34.3287 282.073 34.3287Z" fill="#777676"/>
<path d="M311.143 44.0733C311.164 42.8012 310.929 41.5378 310.452 40.3583C309.975 39.1788 309.265 38.1073 308.365 37.2076C306.46 35.3477 303.903 34.3064 301.24 34.3064C298.578 34.3064 296.02 35.3477 294.116 37.2076C292.326 39.0526 291.325 41.5215 291.325 44.0914C291.325 46.6613 292.326 49.1302 294.116 50.9752C295.041 51.9272 296.153 52.6781 297.382 53.1807C298.611 53.6834 299.931 53.9269 301.258 53.8962C305.942 53.8962 309.148 51.9449 310.8 48.0904L310.932 47.7772L305.417 46.8859L305.327 47.0545C304.585 48.4698 303.253 49.1624 301.258 49.1624C300.706 49.1815 300.155 49.0907 299.637 48.8953C299.12 48.6999 298.647 48.4038 298.245 48.0242C297.455 47.2234 296.947 46.1876 296.798 45.0731H311.119L311.143 44.0733ZM301.258 38.8217C303.567 38.8217 305.001 39.6769 305.646 41.4294H297.063C297.409 40.6158 297.997 39.9286 298.748 39.4618C299.499 38.995 300.375 38.7714 301.258 38.8217V38.8217Z" fill="#777676"/>
<path d="M117.838 25.3069H112.492V30.6429H117.838V25.3069Z" fill="#777676"/>
<path d="M148.908 25.3069H143.568V30.6429H148.908V25.3069Z" fill="#777676"/>
<path d="M267.464 25.3069H262.124V30.6429H267.464V25.3069Z" fill="#777676"/>
<path d="M73.4355 8.60628H72.5796L71.3742 7.10064H71.121V8.60628H70.4038V5.25773H71.7238C72.0262 5.24815 72.3275 5.29935 72.6098 5.40829C72.7727 5.46079 72.914 5.56517 73.0119 5.70547C73.1099 5.84577 73.1592 6.01427 73.1522 6.1852C73.1522 6.70315 72.8026 7.00428 72.0975 7.10064L73.4355 8.60628ZM72.4169 6.19725C72.4169 5.88408 72.1758 5.72749 71.6756 5.72749H71.121V6.6911H71.6514C72.1758 6.67906 72.4169 6.51042 72.4169 6.17918V6.19725Z" fill="#777676"/>
<path d="M71.7539 9.80469C71.2201 9.80468 70.6983 9.64659 70.2544 9.35038C69.8105 9.05418 69.4644 8.63314 69.2598 8.14048C69.0553 7.64781 69.0015 7.10562 69.1052 6.5824C69.2089 6.05918 69.4654 5.57841 69.8425 5.20084C70.2195 4.82326 70.7 4.56582 71.2234 4.46103C71.7468 4.35624 72.2896 4.40882 72.7831 4.61211C73.2766 4.8154 73.6987 5.16028 73.9961 5.60319C74.2935 6.0461 74.4529 6.56716 74.4541 7.10054C74.4541 7.81668 74.1698 8.50358 73.6636 9.01053C73.1574 9.51749 72.4706 9.80309 71.7539 9.80469V9.80469ZM71.7539 4.69151C71.2771 4.69151 70.811 4.8328 70.4145 5.09751C70.018 5.36221 69.709 5.73845 69.5265 6.17865C69.3441 6.61884 69.2963 7.10322 69.3893 7.57052C69.4824 8.03783 69.712 8.46708 70.0491 8.80399C70.3863 9.1409 70.8159 9.37034 71.2836 9.46329C71.7512 9.55624 72.236 9.50854 72.6765 9.3262C73.117 9.14387 73.4936 8.83509 73.7585 8.43893C74.0234 8.04277 74.1648 7.57701 74.1648 7.10054C74.1656 6.78368 74.1038 6.46977 73.983 6.1768C73.8622 5.88382 73.6847 5.61754 73.4608 5.3932C73.2368 5.16887 72.9708 4.99088 72.6779 4.86944C72.385 4.748 72.071 4.68549 71.7539 4.68549V4.69151Z" fill="#777676"/>
<path d="M33.2824 12.9304C35.9525 16.8391 38.3875 20.2539 39.3097 24.4516C39.7236 26.0827 39.6872 27.7954 39.2043 29.4074C38.7214 31.0194 37.81 32.4704 36.5673 33.606C33.0172 37.0328 33.9274 36.8461 30.3894 33.6782C26.9478 30.5947 26.2246 26.6318 28.1051 22.4642C29.5335 19.2722 31.4321 16.3091 33.2824 12.9304Z" fill="#777676"/>
<path d="M31.5223 44.3986L30.8653 43.8264C30.2626 43.3085 28.2314 42.899 26.0435 42.4533C22.1921 41.6704 17.7983 40.779 16.8279 38.5446C16.6621 38.1126 16.6072 37.6459 16.6683 37.1873C16.7293 36.7286 16.9044 36.2925 17.1775 35.9188C18.0816 34.4613 19.95 33.6182 22.3006 33.6182C23.5815 33.5952 24.8529 33.8409 26.0328 34.3395C27.2127 34.838 28.2749 35.5783 29.1507 36.5124C30.0265 37.4466 30.6966 38.554 31.1175 39.7629C31.5385 40.9719 31.701 42.2557 31.5946 43.5313L31.5223 44.3986Z" fill="#777676"/>
<path d="M32.2031 0C43.4438 0.0454102 54.6241 1.64658 65.4251 4.75784C65.8169 4.86625 66.3593 5.3601 66.3774 5.72146C66.9138 19.7661 64.5692 33.2748 58.3913 45.9764C53.2026 56.8087 44.799 65.78 34.3247 71.6688C34.0052 71.896 33.6228 72.018 33.2307 72.018C32.8386 72.018 32.4562 71.896 32.1368 71.6688C18.1416 63.6467 9.08269 51.734 4.09819 36.5511C0.849518 26.674 -0.283598 16.526 0.0599532 6.17315C0.0156507 5.82488 0.106528 5.47288 0.31391 5.18949C0.521291 4.9061 0.829424 4.71284 1.17499 4.64944C8.42074 2.29281 15.9364 0.864095 23.542 0.397491C26.423 0.216813 29.316 0.132497 32.2031 0ZM32.6009 61.8399C33.077 56.4196 33.3422 51.4208 34.0173 46.4763C34.3661 44.0783 35.1245 41.758 36.2594 39.6166C38.4895 35.4008 43.8718 33.9132 47.6569 36.1897C48.6875 36.792 49.4289 37.6532 49.3023 38.924C49.2869 39.5204 49.0826 40.0965 48.7186 40.5694C48.3547 41.0424 47.85 41.3878 47.2771 41.5558C46.6415 41.7747 45.9935 41.9557 45.3364 42.0979C43.3052 42.4773 41.256 42.8085 39.2248 43.1819C37.8446 43.4349 37.0429 44.2419 37.0972 45.6934C37.0979 47.3553 37.2106 49.0152 37.4347 50.662C37.8204 52.8903 38.4533 55.0705 39.0259 57.4796C42.5841 54.3198 45.6335 50.6308 48.0667 46.5425C54.335 36.1536 57.1075 24.7649 57.6439 12.7378C57.6736 12.5972 57.6714 12.4518 57.6376 12.3122C57.6038 12.1726 57.5391 12.0424 57.4484 11.9309C57.3577 11.8195 57.2432 11.7298 57.1133 11.6682C56.9834 11.6067 56.8414 11.575 56.6977 11.5754C52.8403 10.9009 49.0009 10.0818 45.1254 9.61205C38.6341 8.80502 32.0886 8.31117 25.549 9.03388C20.3234 9.63614 15.122 10.4853 9.91445 11.2381C9.08872 11.3586 8.709 11.738 8.80544 12.6956C9.24543 16.4537 9.40816 20.2479 10.0109 23.9699C12.0541 36.1355 16.8277 46.9762 25.6455 55.8233C27.761 57.9433 30.1779 59.7681 32.6009 61.8399V61.8399Z" fill="#777676"/>
</g>
<defs>
<clipPath id="clip0">
<rect width="311.143" height="72" fill="white"/>
</clipPath>
</defs>
</svg>
