<svg width="47" height="56" viewBox="0 0 47 56" fill="none" xmlns="http://www.w3.org/2000/svg">
<g clip-path="url(#clip0)" filter="url(#filter0_d)">
<path d="M22.4801 -1.1527e-05C12.9601 0.319988 5.04008 7.75999 4.16008 17.28C4.00008 19.2 4.08008 21.04 4.40008 22.8C4.40008 22.8 4.40008 23.04 4.56008 23.44C4.80008 24.72 5.28008 26 5.84008 27.2C6.72008 29.28 8.16008 32.08 10.4801 35.28C13.1201 38.96 16.8801 43.2 22.1601 47.6C22.4001 47.84 22.7201 47.92 23.0401 48C23.3601 43.92 23.6001 40.16 24.0801 36.4C24.3201 34.48 24.9601 32.64 25.8401 30.96C27.6001 27.6 31.7601 26.4 34.7201 28.24C35.5201 28.72 36.0801 29.44 36.0001 30.4C36.0001 30.88 35.8401 31.36 35.5201 31.68C35.2001 32.08 34.8801 32.32 34.4001 32.48C33.9201 32.64 33.3601 32.8 32.8801 32.88C31.2801 33.2 29.6801 33.44 28.0801 33.76C27.0401 34 26.4001 34.64 26.4001 35.76C26.4001 37.12 26.4801 38.4 26.6401 39.68C26.8801 41.2 27.2801 42.8 27.6801 44.4C31.2001 41.12 33.8401 37.92 35.8401 35.12C38.0801 32 39.5201 29.28 40.4001 27.12C40.9601 25.92 41.3601 24.64 41.6801 23.36C41.7601 22.96 41.8401 22.72 41.8401 22.72C42.0801 21.52 42.1601 20.32 42.1601 19.12C42.3201 8.31999 33.4401 -0.400012 22.4801 -1.1527e-05ZM22.2401 34L22.1601 34.72L21.6801 34.24C21.2001 33.84 19.6001 33.52 17.9201 33.12C14.8801 32.48 11.5201 31.76 10.7201 30C10.5601 29.68 10.5601 29.28 10.5601 28.96C10.6401 28.56 10.7201 28.24 10.9601 27.92C11.6801 26.8 13.1201 26.08 14.9601 26.08C15.9201 26.08 16.9601 26.24 17.8401 26.64C18.8001 27.04 19.6001 27.6 20.2401 28.4C20.9601 29.12 21.4401 30 21.7601 30.96C22.1601 32 22.3201 33.04 22.2401 34ZM28.1601 22.8C27.7601 24.08 27.0401 25.2 26.0801 26.16C23.2801 28.88 24.0001 28.72 21.2801 26.24C18.5601 23.76 18.0001 20.64 19.5201 17.28C20.6401 14.72 22.0801 12.4 23.6001 9.67999C25.6801 12.8 27.6001 15.52 28.3201 18.88C28.5601 20.16 28.5601 21.52 28.1601 22.8Z" fill="#006632"/>
<path d="M23.5199 9.67999C22.0799 12.4 20.5599 14.72 19.4399 17.28C17.9999 20.56 18.5599 23.76 21.1999 26.24C23.9999 28.72 23.2799 28.88 25.9999 26.16C26.9599 25.28 27.6799 24.08 28.0799 22.8C28.4799 21.52 28.4799 20.16 28.1599 18.88C27.5199 15.52 25.5999 12.8 23.5199 9.67999Z" fill="white"/>
<path d="M20.3198 28.48C19.5998 27.76 18.7998 27.12 17.9198 26.72C16.9598 26.32 15.9998 26.16 15.0398 26.16C13.1998 26.16 11.7598 26.8 11.0398 28C10.7998 28.32 10.7198 28.64 10.6398 29.04C10.5598 29.44 10.6398 29.76 10.7998 30.08C11.5198 31.84 14.9598 32.56 17.9998 33.2C19.6798 33.52 21.2798 33.92 21.7598 34.32L22.2398 34.8L22.3198 34.08C22.3998 33.04 22.2398 32.08 21.9198 31.12C21.5198 30.08 20.9598 29.2 20.3198 28.48Z" fill="#7DB928"/>
<path d="M24.2402 47.6C25.5202 46.56 26.7202 45.44 27.8402 44.4C27.4402 42.72 27.0402 41.2 26.8002 39.68C26.6402 38.4 26.5602 37.04 26.5602 35.76C26.4802 34.64 27.1202 34 28.2402 33.76C29.8402 33.44 31.4402 33.2 33.0402 32.88C33.5202 32.8 34.0802 32.64 34.5602 32.48C35.0402 32.32 35.4402 32.08 35.6802 31.68C36.0002 31.28 36.1602 30.88 36.1602 30.4C36.2402 29.36 35.6802 28.72 34.8802 28.24C31.9202 26.4 27.7602 27.6 26.0002 30.96C25.1202 32.64 24.5602 34.48 24.2402 36.4C23.7602 40.16 23.5202 43.92 23.2002 48C23.4402 48 23.9202 47.92 24.2402 47.6Z" fill="white"/>
</g>
<defs>
<filter id="filter0_d" x="0" y="0" width="46.4" height="56" filterUnits="userSpaceOnUse" color-interpolation-filters="sRGB">
<feFlood flood-opacity="0" result="BackgroundImageFix"/>
<feColorMatrix in="SourceAlpha" type="matrix" values="0 0 0 0 0 0 0 0 0 0 0 0 0 0 0 0 0 0 127 0"/>
<feOffset dy="4"/>
<feGaussianBlur stdDeviation="2"/>
<feColorMatrix type="matrix" values="0 0 0 0 0 0 0 0 0 0 0 0 0 0 0 0 0 0 0.25 0"/>
<feBlend mode="normal" in2="BackgroundImageFix" result="effect1_dropShadow"/>
<feBlend mode="normal" in="SourceGraphic" in2="effect1_dropShadow" result="shape"/>
</filter>
<clipPath id="clip0">
<rect width="38.4" height="48" fill="white" transform="translate(4)"/>
</clipPath>
</defs>
</svg>
