<svg width="70" height="72" viewBox="0 0 70 72" fill="none" xmlns="http://www.w3.org/2000/svg">
<circle cx="24" cy="24" r="24" fill="#006632"/>
<path d="M66.1901 64.3801C65.4678 64.3801 64.7918 64.5822 64.2156 64.9328L48.7987 49.5158C48.7719 49.489 48.7435 49.4649 48.7143 49.4422C49.9222 47.9548 50.6479 46.0609 50.6479 44C50.6479 41.9418 49.9241 40.0502 48.719 38.5638L59.2282 28.0546C60.3564 28.9139 61.7629 29.4255 63.2873 29.4255C66.9887 29.4255 70 26.4142 70 22.7127C70 19.0113 66.9887 16 63.2873 16C59.5858 16 56.5745 19.0113 56.5745 22.7127C56.5745 24.2371 57.0861 25.6436 57.9454 26.7717L47.4362 37.2808C45.9498 36.0759 44.0582 35.3521 42 35.3521C39.9418 35.3521 38.0502 36.0759 36.5638 37.281L31.7109 32.4281C32.0614 31.8519 32.2635 31.1759 32.2635 30.4536C32.2635 28.3528 30.5544 26.6436 28.4536 26.6436C26.3528 26.6436 24.6436 28.3528 24.6436 30.4536C24.6436 32.5544 26.3528 34.2635 28.4536 34.2635C29.1759 34.2635 29.8519 34.0614 30.4281 33.7109L35.281 38.5638C34.0759 40.0502 33.3521 41.9418 33.3521 44C33.3521 45.1674 33.5858 46.2809 34.007 47.2978L22.4679 53.5482C21.591 52.4822 20.2623 51.8013 18.7775 51.8013C16.1432 51.8013 14 53.9445 14 56.5788C14 59.2131 16.1432 61.3564 18.7775 61.3564C21.4118 61.3564 23.5551 59.2131 23.5551 56.5788C23.5551 56.0785 23.4774 55.596 23.3341 55.1424L34.8737 48.8918C36.4345 51.1583 39.046 52.6479 42 52.6479C42.3314 52.6479 42.658 52.6274 42.9798 52.5909L44.1824 58.0025C42.9264 58.626 42.0605 59.9219 42.0605 61.4168C42.0605 63.5176 43.7696 65.2268 45.8704 65.2268C47.9712 65.2268 49.6803 63.5176 49.6803 61.4168C49.6803 59.3439 48.016 57.6535 45.9535 57.609L44.7508 52.1968C45.7394 51.8642 46.6488 51.3586 47.4423 50.7143C47.465 50.7435 47.4891 50.7719 47.5159 50.7987L62.9328 66.2156C62.5822 66.7918 62.3801 67.4678 62.3801 68.1901C62.3801 70.2909 64.0893 72 66.1901 72C68.2909 72 70 70.2909 70 68.1901C70 66.0893 68.2909 64.3801 66.1901 64.3801ZM18.7775 59.5421C17.1436 59.5421 15.8143 58.2128 15.8143 56.5788C15.8143 54.9449 17.1436 53.6156 18.7775 53.6156C20.4115 53.6156 21.7408 54.9449 21.7408 56.5788C21.7408 58.2128 20.4115 59.5421 18.7775 59.5421ZM47.8661 61.4168C47.8661 62.5173 46.9708 63.4125 45.8704 63.4125C44.77 63.4125 43.8747 62.5173 43.8747 61.4168C43.8747 60.3164 44.77 59.4212 45.8704 59.4212C46.9708 59.4212 47.8661 60.3164 47.8661 61.4168ZM63.2873 17.8143C65.9883 17.8143 68.1857 20.0117 68.1857 22.7127C68.1857 25.4138 65.9883 27.6112 63.2873 27.6112C60.5862 27.6112 58.3888 25.4138 58.3888 22.7127C58.3888 20.0117 60.5862 17.8143 63.2873 17.8143ZM26.4579 30.4536C26.4579 29.3532 27.3532 28.4579 28.4536 28.4579C29.554 28.4579 30.4492 29.3532 30.4492 30.4536C30.4492 31.554 29.554 32.4492 28.4536 32.4492C27.3532 32.4492 26.4579 31.554 26.4579 30.4536ZM42 50.8337C38.2319 50.8337 35.1663 47.7681 35.1663 44C35.1663 40.2319 38.2319 37.1663 42 37.1663C45.7681 37.1663 48.8337 40.2319 48.8337 44C48.8337 47.7681 45.7681 50.8337 42 50.8337ZM66.1901 70.1857C65.0897 70.1857 64.1944 69.2905 64.1944 68.1901C64.1944 67.0897 65.0897 66.1944 66.1901 66.1944C67.2905 66.1944 68.1857 67.0897 68.1857 68.1901C68.1857 69.2905 67.2905 70.1857 66.1901 70.1857Z" fill="black"/>
<path d="M41.9999 39.2225C41.4989 39.2225 41.0928 39.6287 41.0928 40.1297C41.0928 40.6306 41.4989 41.0368 41.9999 41.0368C43.6338 41.0368 44.9632 42.3662 44.9632 44.0001C44.9632 44.501 45.3693 44.9072 45.8703 44.9072C46.3713 44.9072 46.7774 44.501 46.7774 44.0001C46.7774 41.3658 44.6342 39.2225 41.9999 39.2225Z" fill="black"/>
<path d="M63.2875 21.6846C63.8544 21.6846 64.3156 22.1458 64.3156 22.7127C64.3156 23.2137 64.7217 23.6198 65.2227 23.6198C65.7237 23.6198 66.1298 23.2137 66.1298 22.7127C66.1298 21.1454 64.8548 19.8704 63.2875 19.8704C62.7865 19.8704 62.3804 20.2765 62.3804 20.7775C62.3804 21.2785 62.7865 21.6846 63.2875 21.6846Z" fill="black"/>
</svg>
