<svg width="70" height="72" viewBox="0 0 70 72" fill="none" xmlns="http://www.w3.org/2000/svg">
<circle cx="24" cy="24" r="24" fill="#006632"/>
<path d="M63.8656 54.1824C64.2248 54.3622 64.6592 54.2935 64.9438 54.0103C65.2284 53.7261 65.2994 53.2922 65.1196 52.9325L61.3895 45.4723C61.2415 45.1764 60.9478 44.981 60.6181 44.9592C60.2903 44.9428 59.9716 45.0912 59.7849 45.3644L58.2668 47.591L55.3058 48.4693L47.4549 43.8541L48.4002 42.2463C48.407 42.2345 48.4066 42.2208 48.413 42.2085C48.4635 42.1142 48.5022 42.0141 48.5177 41.9052C48.5181 41.9012 48.52 41.898 48.5209 41.8939C48.5209 41.893 48.5213 41.8925 48.5213 41.8916L49.4183 34.8467C49.4793 34.3654 49.1615 33.9178 48.6871 33.8167L46.4864 33.3482C47.0843 27.2203 44.1178 21.3392 38.749 18.1824C31.2141 13.7539 21.4791 16.28 17.0487 23.8144C13.3232 30.1508 14.4666 38.1834 19.696 43.2316L17.102 47.6438L15.2115 50.8594C15.0858 51.0725 15.0503 51.327 15.1127 51.566C15.1746 51.8055 15.3294 52.0104 15.5425 52.1357L34.8359 63.4785C34.9802 63.5636 35.1437 63.6073 35.3085 63.6073C35.3868 63.6073 35.4656 63.5973 35.543 63.5773C35.782 63.5153 35.9869 63.3605 36.1126 63.1474L37.8369 60.2133L59.4607 51.9613L63.8656 54.1824ZM28.6347 31.7072L46.3198 42.1051L45.3745 43.7125L27.6894 33.3149L28.6347 31.7072ZM46.5074 45.4646C46.5083 45.4637 46.5092 45.4632 46.5097 45.4623L52.8593 49.1951L42.5091 52.2659L46.5074 45.4646ZM46.8498 40.2528L33.7294 32.5395L47.4595 35.4623L46.8498 40.2528ZM18.6561 24.7597C21.2597 20.3316 25.9387 17.8641 30.7383 17.8641C33.1452 17.8641 35.5831 18.4848 37.8037 19.7907C42.4795 22.5395 45.0977 27.6297 44.6583 32.9589L28.4972 29.5188C28.4849 29.5161 28.4726 29.5193 28.4603 29.517C28.4489 29.5152 28.4393 29.5088 28.428 29.5075C28.4002 29.5038 28.3733 29.5125 28.3455 29.5115C28.2932 29.5093 28.2408 29.502 28.1898 29.5084C28.1611 29.5115 28.1352 29.5202 28.1074 29.5261C28.0742 29.5334 28.0441 29.5448 28.0118 29.5557C27.974 29.568 27.9367 29.578 27.9007 29.5949C27.8629 29.6131 27.8301 29.6363 27.795 29.6591C27.7787 29.67 27.7595 29.6736 27.744 29.6855C27.7349 29.6923 27.7295 29.7028 27.7204 29.7101C27.6962 29.7297 27.6744 29.7511 27.6521 29.7729C27.6184 29.8066 27.5906 29.8439 27.5619 29.8826C27.5423 29.9091 27.5164 29.9295 27.4995 29.9582L20.6636 41.5851C16.3216 37.1179 15.4455 30.221 18.6561 24.7597ZM26.7441 34.9227L44.4293 45.3202L36.8671 58.1829L31.7979 55.2023L19.182 47.785L26.7441 34.9227ZM34.977 61.398L17.2914 51.0005L18.2367 49.3927L35.9223 59.7907L34.977 61.398ZM39.35 57.6402L41.1244 54.6218L59.1155 49.2844C59.3218 49.2234 59.5003 49.0931 59.621 48.9155L60.4315 47.7267L62.1931 51.25L59.9329 50.1103C59.6988 49.9929 59.4252 49.9783 59.1807 50.0721L39.35 57.6402Z" fill="black"/>
<path d="M68.8001 66.4367L66.0667 60.4236C65.9155 60.0907 65.5836 59.8772 65.218 59.8772C64.8523 59.8772 64.5204 60.0907 64.3692 60.4236L61.6354 66.4372C61.0794 67.6607 61.1819 69.0658 61.9095 70.1955C62.6371 71.3256 63.8738 72 65.218 72C66.5621 72 67.7988 71.3256 68.5264 70.1955C69.254 69.0658 69.3565 67.6607 68.8001 66.4367V66.4367ZM66.9582 69.186C66.5698 69.7889 65.9356 70.1349 65.218 70.1349C64.5003 70.1349 63.8661 69.7889 63.4777 69.186C63.0893 68.5827 63.0369 67.8619 63.3333 67.2085L65.218 63.0632L67.1021 67.2085C67.399 67.8619 67.3466 68.5827 66.9582 69.186V69.186Z" fill="black"/>
</svg>
