<svg width="70" height="72" viewBox="0 0 70 72" fill="none" xmlns="http://www.w3.org/2000/svg">
<circle cx="24" cy="24" r="24" fill="#006632"/>
<g clip-path="url(#clip0)">
<path d="M22.9121 60.7326H23.315C23.7679 60.7326 24.1349 60.3652 24.1349 59.9119C24.1349 59.459 23.7679 59.0916 23.315 59.0916H22.9121C22.4592 59.0916 22.0918 59.459 22.0918 59.9119C22.0918 60.3652 22.4592 60.7326 22.9121 60.7326Z" fill="black"/>
<path d="M27.7862 52.5061C28.2391 52.5061 28.6065 52.1387 28.6065 51.6858C28.6065 51.2329 28.2391 50.8655 27.7862 50.8655H27.3863C26.9334 50.8655 26.5664 51.2329 26.5664 51.6858C26.5664 52.1387 26.9334 52.5061 27.3863 52.5061H27.7862Z" fill="black"/>
<path d="M21.5416 53.772H21.1417C20.6888 53.772 20.3218 54.139 20.3218 54.5923C20.3218 55.0452 20.6888 55.4126 21.1417 55.4126H21.5416C21.9944 55.4126 22.3619 55.0452 22.3619 54.5923C22.3619 54.139 21.9944 53.772 21.5416 53.772Z" fill="black"/>
<path d="M60.6133 59.0916C60.1605 59.0916 59.7935 59.459 59.7935 59.9119C59.7935 60.3652 60.1605 60.7322 60.6133 60.7322H61.0132C61.4661 60.7322 61.8336 60.3652 61.8336 59.9119C61.8336 59.459 61.4661 59.0916 61.0132 59.0916H60.6133Z" fill="black"/>
<path d="M56.5425 52.5061C56.9954 52.5061 57.3628 52.1387 57.3628 51.6858C57.3628 51.2329 56.9954 50.8655 56.5425 50.8655H56.1426C55.6897 50.8655 55.3223 51.2329 55.3223 51.6858C55.3223 52.1387 55.6897 52.5061 56.1426 52.5061H56.5425Z" fill="black"/>
<path d="M62.3867 55.4126H62.7866C63.2395 55.4126 63.6069 55.0452 63.6069 54.5923C63.6069 54.1394 63.2395 53.772 62.7866 53.772H62.3867C61.9338 53.772 61.5664 54.1394 61.5664 54.5923C61.5664 55.0452 61.9338 55.4126 62.3867 55.4126Z" fill="black"/>
<path d="M65.6113 46.1999H45.8016C45.1753 44.843 44.34 43.3519 43.2394 41.7194C43.2369 41.716 43.2343 41.7121 43.2318 41.7083C42.8434 41.1529 42.2867 40.459 41.5689 40.1463V33.2595L45.33 31.0006C46.3126 32.2465 47.6384 32.904 49.1004 32.904C49.5708 32.904 50.0553 32.8357 50.5466 32.6972C52.0779 32.2666 53.5715 31.1903 54.7524 29.6681C55.9697 28.0992 56.7635 26.148 56.9882 24.1745C56.9899 24.1608 56.9912 24.1467 56.9921 24.1331C57.0408 23.3478 56.8519 22.7091 56.4298 22.2335C55.9769 21.7234 55.2784 21.4384 54.3517 21.3859C48.991 21.0919 45.873 23.2824 44.7446 25.4293C44.0478 26.7551 43.9786 28.2291 44.5079 29.58L40.749 31.838L36.9901 29.5805C37.5203 28.2299 37.4515 26.7564 36.7551 25.4306C35.6272 23.2833 32.5104 21.0928 27.1447 21.3859C26.2192 21.438 25.5207 21.7234 25.0678 22.2335C24.6461 22.7091 24.4568 23.3478 24.506 24.1327C24.5068 24.1467 24.5077 24.1608 24.5094 24.1745C24.7341 26.148 25.5284 28.0988 26.7452 29.6676C27.9265 31.1903 29.4202 32.2661 30.9514 32.6972C31.4427 32.8357 31.9268 32.9036 32.3972 32.9036C33.8593 32.9036 35.1854 32.2461 36.1681 31.0006L39.9287 33.2595V40.1898C39.2985 40.5009 38.7786 41.1182 38.3047 41.7719C37.1973 43.3028 36.2928 44.781 35.593 46.1999H29.9658C29.5125 46.1999 29.1454 46.5673 29.1454 47.0202C29.1454 47.4735 29.5125 47.841 29.9658 47.841H34.8646C34.3207 49.2265 33.9866 50.5497 33.8674 51.802C33.7294 53.2495 33.8892 54.4432 34.2036 55.4186L33.0684 56.6183L32.149 55.9928C31.4171 55.4925 30.9736 55.5446 30.3298 55.6908C30.2653 55.7053 30.1952 55.7211 30.1179 55.7373L29.1382 55.9454C28.6951 56.0394 28.4119 56.4748 28.5059 56.9182C28.5999 57.3613 29.0352 57.6446 29.4783 57.5506L30.4575 57.3429C30.5425 57.3245 30.6199 57.3075 30.6917 57.2912C30.8177 57.2626 30.9736 57.2254 31.0155 57.2297C31.0176 57.2301 31.0702 57.2429 31.2249 57.3485L31.9255 57.8257L31.4637 58.3136C30.7002 59.1177 30.7634 59.7727 30.8365 60.5306L30.9442 61.653C30.9852 62.0772 31.3419 62.3947 31.7598 62.3947C31.7858 62.3947 31.8123 62.3938 31.8392 62.3913C32.29 62.3477 32.6202 61.9469 32.5771 61.4962L32.469 60.3734C32.4083 59.7432 32.4049 59.7056 32.6536 59.4428L34.9504 57.0161C35.2435 57.4762 35.5631 57.8552 35.8716 58.1615C37.1602 59.4411 38.9298 60.0987 40.6999 60.0987C42.1068 60.0987 43.5142 59.6825 44.6801 58.8336C44.6805 58.8332 44.6814 58.8332 44.6818 58.8327C44.6831 58.8319 44.6844 58.8306 44.6857 58.8297C44.6917 58.825 44.6985 58.8212 44.7045 58.8165C45.6273 58.1363 46.34 57.2318 46.8108 56.1594L48.959 58.4294C49.2072 58.6905 49.2034 58.728 49.1427 59.3561L49.035 60.4819C48.9919 60.9331 49.3226 61.3334 49.7733 61.3765C49.7998 61.3791 49.8263 61.3804 49.8524 61.3804C50.2702 61.3804 50.6274 61.0625 50.668 60.6383L50.7752 59.5142C50.8487 58.7575 50.9119 58.1034 50.1493 57.3002L49.6853 56.8101L50.386 56.3316C50.5394 56.2274 50.5919 56.2154 50.5923 56.2154C50.6351 56.2094 50.7927 56.2475 50.9192 56.2761C50.991 56.2923 51.0687 56.3103 51.1537 56.3282L52.1339 56.5358C52.5769 56.6303 53.0123 56.347 53.1063 55.9035C53.1998 55.46 52.917 55.0247 52.4739 54.9307L51.4938 54.7226C51.4165 54.7064 51.3464 54.6906 51.2815 54.6756C50.6393 54.5304 50.1967 54.4778 49.4636 54.9751L48.5437 55.6032L47.3474 54.3394C47.6025 52.8094 47.5243 50.6646 46.4831 47.8405H65.6109C67.1268 47.8405 68.3594 49.0727 68.3594 50.5873V62.3618C68.3594 63.8764 67.1263 65.1085 65.6109 65.1085H18.3857C16.8719 65.1085 15.6402 63.8764 15.6402 62.3618V50.5877C15.6402 49.0731 16.8719 47.841 18.3857 47.841H25.3583C25.8112 47.841 26.1786 47.4735 26.1786 47.0207C26.1786 46.5678 25.8112 46.2003 25.3583 46.2003H18.3857C15.9675 46.1999 14 48.1682 14 50.5877V62.3626C14 64.7821 15.9675 66.75 18.3857 66.75H65.6113C68.0312 66.75 70 64.7821 70 62.3626V50.5877C70 48.1682 68.0312 46.1999 65.6113 46.1999V46.1999ZM46.1964 26.1928C47.0881 24.4971 49.6742 22.774 54.2611 23.0248C54.7277 23.0509 55.0536 23.1543 55.2036 23.3234C55.3224 23.4572 55.3737 23.6887 55.3561 24.0109C54.9169 27.7903 52.324 30.4926 50.1023 31.1181C49.1718 31.3805 47.8537 31.4112 46.7523 30.1466L49.7126 28.3684C50.101 28.1351 50.2271 27.6309 49.9938 27.2426C49.7605 26.8542 49.2568 26.7286 48.8684 26.9614L45.9435 28.7183C45.6897 27.8822 45.7692 27.0067 46.1964 26.1928ZM31.3958 31.1181C29.1741 30.4926 26.5811 27.7903 26.1415 24.0109C26.124 23.6883 26.1757 23.4572 26.2944 23.3234C26.4444 23.1538 26.7704 23.0509 27.2357 23.0244C31.8247 22.7744 34.4121 24.4975 35.3033 26.1941C35.7306 27.0076 35.8096 27.883 35.555 28.7183L32.6292 26.961C32.2408 26.7282 31.7371 26.8538 31.5038 27.2421C31.271 27.6309 31.3966 28.1347 31.785 28.3684L34.7458 30.1466C33.6443 31.4108 32.3263 31.38 31.3958 31.1181ZM44.3708 56.9281L43.3646 55.4605L43.5898 53.1555C43.6278 52.7663 43.3864 52.4044 43.0126 52.2907L40.8546 51.6328C40.4213 51.5012 39.9633 51.7456 39.8313 52.1788C39.6993 52.6124 39.9432 53.0709 40.3765 53.2029L41.8919 53.6648L41.7031 55.5985C41.6843 55.7903 41.7338 55.983 41.8432 56.1424L43.0557 57.9107C41.1122 58.8989 38.5987 58.558 37.0277 56.9973C36.5612 56.5341 36.2014 55.9992 35.9417 55.4041C35.9224 55.3302 35.8925 55.2584 35.8524 55.1913C34.6988 52.1989 36.0156 47.7346 39.6331 42.7345C40.3346 41.7668 40.6631 41.6211 40.7977 41.6211H40.799C40.861 41.6215 41.2045 41.6732 41.8838 42.6435C43.0476 44.3696 43.8923 45.9111 44.496 47.2834C44.5118 47.3296 44.531 47.374 44.5541 47.4163C45.9567 50.6634 45.9922 52.9423 45.6628 54.4188C45.6628 54.4197 45.6624 54.4201 45.6624 54.421C45.4415 55.4083 44.9997 56.2607 44.3708 56.9281V56.9281Z" fill="black"/>
</g>
<defs>
<clipPath id="clip0">
<rect width="56" height="56" fill="white" transform="translate(14 16)"/>
</clipPath>
</defs>
</svg>
