<svg width="70" height="72" viewBox="0 0 70 72" fill="none" xmlns="http://www.w3.org/2000/svg">
<circle cx="24" cy="24" r="24" fill="#006632"/>
<g clip-path="url(#clip0)">
<path d="M63.288 70.1857H59.7543C55.62 66.6532 49.5427 64.5678 42.9071 64.3933V59.0409L47.0832 54.8648C47.8471 55.0068 48.621 55.0775 49.3963 55.0775C52.9687 55.0775 56.5584 53.6002 59.2288 50.9299C62.6051 47.5536 64.0736 42.7085 63.0615 38.2855C62.9838 37.9462 62.7188 37.6812 62.3795 37.6036C57.9566 36.5914 53.1115 38.0601 49.7351 41.4363C46.4852 44.6861 45.004 49.2967 45.8002 53.582L42.9071 56.4751V39.748L45.6317 37.0234C46.1582 37.1132 46.6908 37.1575 47.2239 37.1575C49.8851 37.1575 52.5576 36.0585 54.5448 34.0712C57.058 31.5581 58.1506 27.9491 57.3962 24.6526C57.3185 24.3132 57.0535 24.0483 56.7142 23.9706C53.4177 23.2165 49.8088 24.3088 47.2956 26.822C44.9082 29.2094 43.804 32.5854 44.346 35.7432L42.9071 37.1821V35.4276C42.9071 32.6269 41.8253 29.9932 39.8613 28.0007C40.4005 24.8449 39.2962 21.4719 36.9105 19.0862C34.3973 16.573 30.7886 15.4805 27.4917 16.2348C27.1525 16.3125 26.8875 16.5775 26.8098 16.9168C26.0554 20.2131 27.148 23.8222 29.6612 26.3354C31.6486 28.3228 34.3207 29.4217 36.9821 29.4217C37.5172 29.4217 38.0521 29.3769 38.5808 29.2863C40.2004 30.9358 41.0927 33.1129 41.0927 35.4277V48.7339L38.1995 45.8407C38.9958 41.5555 37.5144 36.945 34.2646 33.695C30.8883 30.3186 26.0431 28.8499 21.6202 29.8623C21.2809 29.94 21.0159 30.205 20.9383 30.5443C19.9261 34.9672 21.3946 39.8123 24.771 43.1887C27.4415 45.8592 31.0308 47.3362 34.6034 47.3362C35.3785 47.3362 36.1526 47.2655 36.9166 47.1235L41.0928 51.2997V64.3932C34.4572 64.5677 28.3799 66.6531 24.2456 70.1856H20.7119C20.2109 70.1856 19.8047 70.5918 19.8047 71.0928C19.8047 71.5938 20.2109 71.9999 20.7119 71.9999H63.288C63.789 71.9999 64.1952 71.5938 64.1952 71.0928C64.1952 70.5918 63.789 70.1857 63.288 70.1857ZM51.0181 42.7191C53.8117 39.9257 57.7442 38.6289 61.4067 39.2584C62.0364 42.9212 60.7395 46.8534 57.9459 49.647C55.4428 52.15 52.0255 53.4504 48.707 53.241L57.1762 44.7719C57.5304 44.4176 57.5304 43.8432 57.1762 43.489C56.8219 43.1347 56.2475 43.1347 55.8933 43.489L47.4242 51.9582C47.2147 48.6394 48.5151 45.2222 51.0181 42.7191ZM48.5786 28.1051C50.5074 26.1762 53.2024 25.2567 55.7356 25.6315C56.1101 28.1644 55.1909 30.8595 53.2619 32.7885C51.6371 34.4133 49.4689 35.3215 47.3114 35.3437L52.5293 30.1258C52.8836 29.7715 52.8836 29.1971 52.5293 28.8429C52.175 28.4887 51.6006 28.4887 51.2465 28.8429L46.023 34.0664C46.0424 31.9055 46.951 29.7327 48.5786 28.1051ZM28.4706 17.8955C31.0038 17.5213 33.6987 18.4402 35.6277 20.3692C37.2524 21.994 38.1607 24.1625 38.1828 26.3197L32.965 21.1018C32.6107 20.7475 32.0363 20.7475 31.6821 21.1018C31.3278 21.4561 31.3278 22.0305 31.6821 22.3847L36.9056 27.6081C34.7448 27.5889 32.5719 26.6801 30.9443 25.0526C29.0153 23.1236 28.0962 20.4284 28.4706 17.8955ZM26.0539 41.9058C23.2604 39.1123 21.9636 35.1801 22.5932 31.5172C26.2558 30.8876 30.1882 32.1846 32.9818 34.978C35.4848 37.4811 36.7851 40.8983 36.5757 44.2169L28.1066 35.7478C27.7523 35.3935 27.1779 35.3935 26.8237 35.7478C26.4694 36.102 26.4694 36.6765 26.8237 37.0306L35.2929 45.4998C31.9745 45.7093 28.5571 44.4089 26.0539 41.9058ZM41.9999 66.1942C47.5239 66.1942 52.8307 67.658 56.7213 70.1857H27.2786C31.1691 67.6579 36.4759 66.1942 41.9999 66.1942Z" fill="black"/>
</g>
<defs>
<clipPath id="clip0">
<rect width="56" height="56" fill="white" transform="translate(14 16)"/>
</clipPath>
</defs>
</svg>
